<svg xmlns="http://www.w3.org/2000/svg" viewBox="0 0 512 512" role="img" aria-label="Eufy Mower Plugin">
  <defs>
    <linearGradient id="bg" x1="0" y1="0" x2="1" y2="1">
      <stop offset="0%" stop-color="#1b3320"/>
      <stop offset="100%" stop-color="#0a120c"/>
    </linearGradient>
    <linearGradient id="grass" x1="0" y1="0" x2="0" y2="1">
      <stop offset="0%" stop-color="#37b24d"/>
      <stop offset="100%" stop-color="#2b8a3e"/>
    </linearGradient>
  </defs>
  <rect width="512" height="512" rx="96" fill="url(#bg)"/>
  <rect x="48" y="296" width="416" height="168" rx="20" fill="url(#grass)"/>
  <g stroke="#51cf66" stroke-width="3" opacity="0.4">
    <line x1="64" y1="320" x2="448" y2="320"/>
    <line x1="64" y1="350" x2="448" y2="350"/>
    <line x1="64" y1="380" x2="448" y2="380"/>
  </g>
  <rect x="156" y="184" width="200" height="120" rx="22" fill="#e9ecef"/>
  <rect x="156" y="184" width="200" height="56" rx="22" fill="#495057"/>
  <rect x="244" y="156" width="24" height="36" rx="6" fill="#fab005"/>
  <rect x="172" y="208" width="168" height="14" rx="6" fill="#22b8cf"/>
  <circle cx="186" cy="316" r="28" fill="#212529"/>
  <circle cx="186" cy="316" r="12" fill="#868e96"/>
  <circle cx="326" cy="316" r="28" fill="#212529"/>
  <circle cx="326" cy="316" r="12" fill="#868e96"/>
  <circle cx="256" cy="280" r="22" fill="#adb5bd" stroke="#495057" stroke-width="3"/>
  <line x1="240" y1="280" x2="272" y2="280" stroke="#495057" stroke-width="3"/>
  <line x1="256" y1="264" x2="256" y2="296" stroke="#495057" stroke-width="3"/>
</svg>
